<?xml version="1.0" encoding="UTF-8" standalone="no"?>
<!DOCTYPE svg PUBLIC "-//W3C//DTD SVG 1.1//EN" "http://www.w3.org/Graphics/SVG/1.1/DTD/svg11.dtd">
<svg width="100%" height="100%" viewBox="0 0 3780 3780" version="1.1" xmlns="http://www.w3.org/2000/svg" xmlns:xlink="http://www.w3.org/1999/xlink" xml:space="preserve" xmlns:serif="http://www.serif.com/" style="fill-rule:evenodd;clip-rule:evenodd;stroke-linejoin:round;stroke-miterlimit:2;">
    <g transform="matrix(1,0,0,1,-12.975663,-3.917651)">
        <path d="M751.22,1515.859L1563.696,1382.272L873.858,2177.228L751.22,1515.859Z" style="fill:white;"/>
    </g>
    <g transform="matrix(1,0,0,1,-12.975663,-3.917651)">
        <path d="M2942.387,1155.611L2539.981,1818.074L3117.584,1727.738L2942.387,1155.611Z" style="fill:white;"/>
    </g>
    <g transform="matrix(1,0,0,1,-12.975663,-3.917651)">
        <path d="M1296.625,2688.71L1563.696,2654.838L1923.83,2987.712L2106.035,2754.117L1889.764,2783.316L1788.344,2630.311L2486.796,2543.88L1921.494,3239.014L1296.625,2688.71Z" style="fill:white;"/>
    </g>
    <g transform="matrix(1,0,0,1,-12.975663,-3.917651)">
        <path d="M587.241,867.719L3184.019,548.349L2301.951,1989.314L3161.207,1894.263L3218.237,2388.525L743.124,2685.083L1986.384,1213.702L731.718,1388.595" style="fill:white;"/>
    </g>
</svg>
